<svg width="39" height="40" viewBox="0 0 39 40" fill="none" xmlns="http://www.w3.org/2000/svg">
<path d="M19.921 23.7164H30.7198C30.453 25.4042 29.3309 28.0323 26.8505 29.8656L32.6756 34.3104C36.2526 30.9837 38.3281 26.0969 38.3281 20.3317C38.3281 19.0595 38.2054 18.1189 38.029 17.1398H19.921V23.7164Z" fill="#4086F4"/>
<path d="M19.921 39.0052C25.0963 39.0052 29.4837 37.2789 32.6756 34.3104L26.8505 29.8656C25.1953 31.0889 22.9353 31.9583 19.921 31.9583C14.7377 31.9583 10.313 28.5094 8.74264 23.722L2.88103 28.4043C5.99191 34.6939 12.4455 39.0052 19.921 39.0052Z" fill="#31AA52"/>
<path d="M32.6756 5.76755C29.3546 2.65272 25.0443 0.763779 19.921 0.763779C12.4455 0.763779 5.99191 5.07511 2.88103 11.3647L8.74264 15.9637C11.3401 8.03916 21.6157 5.06512 27.4986 10.7713L32.6756 5.76755Z" fill="#EB4132"/>
<path d="M8.13274 19.8845C8.13274 18.473 8.34994 17.1618 8.74264 15.9637L2.88103 11.3647C1.61292 13.9286 0.900269 16.8212 0.900269 19.8845C0.900269 22.9478 1.61292 25.8404 2.88103 28.4043L8.74264 23.722C8.34719 22.5165 8.13274 21.2261 8.13274 19.8845Z" fill="#FBBD00"/>
</svg>
