<svg width="130" height="74" viewBox="0 0 130 74" fill="none" xmlns="http://www.w3.org/2000/svg">
<path d="M12.0161 15.8362C13.9685 15.8362 15.6492 16.188 17.0581 16.8914C18.4872 17.5748 19.5741 18.5496 20.3188 19.8158C21.0837 21.0619 21.4661 22.5291 21.4661 24.2174C21.4661 24.8003 21.3956 25.5339 21.2547 26.4182C20.8924 28.4884 20.1075 30.3274 18.8998 31.9353C17.7123 33.5432 16.1926 34.7894 14.3409 35.6737C12.5093 36.5581 10.4864 37.0002 8.27239 37.0002H0.332031L4.07578 15.8362H12.0161ZM8.72527 32.5986C10.6776 32.5986 12.2979 32.0559 13.5861 30.9706C14.8743 29.8853 15.6794 28.3678 16.0014 26.4182C16.1021 25.8153 16.1524 25.3128 16.1524 24.9108C16.1524 23.4235 15.6995 22.2779 14.7938 21.4739C13.888 20.6499 12.5998 20.2379 10.9292 20.2379H8.45354L6.27975 32.5986H8.72527Z" fill="black"/>
<path d="M28.1554 18.429C27.3503 18.429 26.7062 18.2179 26.2231 17.7959C25.7602 17.3537 25.5287 16.801 25.5287 16.1377C25.5287 15.2333 25.881 14.4595 26.5854 13.8163C27.2899 13.1731 28.1453 12.8516 29.1517 12.8516C29.9568 12.8516 30.5908 13.0726 31.0538 13.5148C31.5167 13.9369 31.7482 14.4896 31.7482 15.173C31.7482 16.0573 31.3959 16.8211 30.6915 17.4642C29.987 18.1074 29.1416 18.429 28.1554 18.429ZM30.3895 20.1776L27.4308 37.0002H22.268L25.2268 20.1776H30.3895Z" fill="black"/>
<path d="M31.6552 28.5587C31.9571 26.8303 32.5509 25.3128 33.4365 24.0064C34.3221 22.7 35.3889 21.695 36.6368 20.9916C37.8847 20.2881 39.2031 19.9364 40.5919 19.9364C41.7794 19.9364 42.7758 20.1776 43.5809 20.6599C44.386 21.1423 44.9697 21.7754 45.332 22.5593L45.7547 20.1776H50.9174L47.9284 37.0002H42.7657L43.2186 34.6185C42.5745 35.4024 41.7593 36.0355 40.7731 36.5179C39.7868 37.0002 38.6999 37.2414 37.5124 37.2414C36.3248 37.2414 35.2681 36.9701 34.3423 36.4274C33.4365 35.8847 32.7321 35.121 32.2289 34.1362C31.7257 33.1312 31.4741 31.9554 31.4741 30.6088C31.4741 29.9657 31.5345 29.2823 31.6552 28.5587ZM44.2753 28.5889C44.3357 28.2271 44.3658 27.8955 44.3658 27.594C44.3658 26.6092 44.074 25.8354 43.4903 25.2726C42.9267 24.7098 42.2021 24.4285 41.3165 24.4285C40.29 24.4285 39.3541 24.8003 38.5087 25.5439C37.6633 26.2675 37.13 27.2724 36.9086 28.5587C36.8482 28.9205 36.818 29.2522 36.818 29.5536C36.818 30.5385 37.0998 31.3223 37.6633 31.9052C38.247 32.468 38.9716 32.7493 39.8371 32.7493C40.8636 32.7493 41.7996 32.3775 42.6449 31.6339C43.4903 30.8902 44.0337 29.8752 44.2753 28.5889Z" fill="black"/>
<path d="M26.5187 48.8398C26.6834 47.897 27.0073 47.0693 27.4903 46.3567C27.9734 45.6441 28.5553 45.096 29.236 44.7123C29.9166 44.3286 30.6358 44.1367 31.3933 44.1367C31.9971 44.1367 32.5241 44.2628 32.9742 44.5149C33.4353 44.7671 33.7702 45.1069 33.9788 45.5345L34.7363 41.2754H37.5523L35.395 53.4443H32.579L32.8095 52.1287C32.4582 52.5672 32.0191 52.9181 31.4921 53.1812C30.9651 53.4443 30.3778 53.5758 29.73 53.5758C29.0823 53.5758 28.5059 53.4278 28.0009 53.1318C27.5068 52.8358 27.1171 52.4138 26.8316 51.8656C26.5572 51.3175 26.4199 50.6761 26.4199 49.9416C26.4199 49.6018 26.4529 49.2345 26.5187 48.8398ZM33.4024 48.8563C33.4353 48.6589 33.4518 48.4781 33.4518 48.3136C33.4518 47.7764 33.2926 47.3544 32.9742 47.0474C32.6668 46.7404 32.2716 46.5869 31.7885 46.5869C31.2286 46.5869 30.7181 46.7898 30.257 47.1954C29.7959 47.5901 29.5049 48.1382 29.3842 48.8398C29.3512 49.0372 29.3348 49.2181 29.3348 49.3825C29.3348 49.9197 29.4885 50.3472 29.7959 50.6652C30.1143 50.9721 30.5095 51.1256 30.9816 51.1256C31.5415 51.1256 32.052 50.9228 32.5131 50.5172C32.9742 50.1115 33.2706 49.5579 33.4024 48.8563Z" fill="black"/>
<path d="M43.1632 44.1367C44.3489 44.1367 45.2876 44.4601 45.9792 45.1069C46.6819 45.7428 47.0332 46.6144 47.0332 47.7216C47.0332 48.0834 47.0058 48.4068 46.9509 48.6918C46.9069 48.944 46.8411 49.2126 46.7532 49.4976H40.3801C40.3691 49.5634 40.3636 49.6675 40.3636 49.8101C40.3636 50.2924 40.4954 50.6597 40.7589 50.9118C41.0224 51.164 41.3737 51.2901 41.8128 51.2901C42.5155 51.2901 43.0534 50.9941 43.4267 50.4021H46.4239C46.0287 51.3339 45.3864 52.0958 44.4971 52.6878C43.6078 53.2798 42.6088 53.5758 41.4999 53.5758C40.3142 53.5758 39.3646 53.2469 38.6509 52.5892C37.9483 51.9314 37.597 51.0379 37.597 49.9087C37.597 49.5689 37.6299 49.2181 37.6958 48.8563C37.8605 47.9025 38.2008 47.0693 38.7168 46.3567C39.2328 45.6441 39.8751 45.096 40.6436 44.7123C41.4121 44.3286 42.252 44.1367 43.1632 44.1367ZM44.1842 48.0669C44.2062 47.9135 44.2172 47.8093 44.2172 47.7545C44.2172 47.316 44.0799 46.9816 43.8055 46.7514C43.531 46.5102 43.1687 46.3896 42.7186 46.3896C42.2355 46.3896 41.8073 46.5376 41.4341 46.8336C41.0718 47.1186 40.8083 47.5298 40.6436 48.0669H44.1842Z" fill="black"/>
<path d="M77.28 20.1826L76.0943 26.8426H61.9647L60.6802 34.292H71.2527L70.067 40.7053H59.4945L57.0243 54.8146H48.5762L54.7023 20.1826H77.28Z" fill="black"/>
<path d="M107.657 27.2866L102.816 54.8146H94.3677L95.01 51.0653C93.9231 52.2822 92.5892 53.2688 91.0083 54.0253C89.4603 54.7488 87.797 55.1106 86.0184 55.1106C83.2518 55.1106 81.078 54.3377 79.4971 52.792C77.9161 51.2133 77.1257 49.0262 77.1257 46.2306C77.1257 45.1782 77.208 44.2244 77.3727 43.3693L80.2381 27.2866H88.6368L86.0184 42.2346C85.9196 42.7608 85.8702 43.2706 85.8702 43.764C85.8702 45.1453 86.249 46.2142 87.0065 46.9706C87.797 47.6942 88.8839 48.056 90.2672 48.056C91.8481 48.056 93.182 47.5955 94.2689 46.6746C95.3888 45.7208 96.1298 44.3724 96.4921 42.6293L99.2094 27.2866H107.657Z" fill="black"/>
<path d="M120.346 45.3426C120.313 45.5071 120.296 45.7208 120.296 45.984C120.296 46.576 120.461 47.0035 120.791 47.2666C121.153 47.5297 121.729 47.6613 122.52 47.6613H125.533L124.249 54.8146H119.951C114.417 54.8146 111.651 52.496 111.651 47.8586C111.651 47.168 111.733 46.2964 111.898 45.244L113.874 34.292H110.514L111.75 27.2866H115.109L116.295 20.5773H124.743L123.557 27.2866H129.09L127.855 34.292H122.322L120.346 45.3426Z" fill="black"/>
</svg>
